<?xml version="1.0" encoding="UTF-8"?>
<svg id="Layer_1" data-name="Layer 1" xmlns="http://www.w3.org/2000/svg" viewBox="0 0 434.94 556.91">
  <defs>
    <style>
      .cls-1 {
        fill: #1c1c1c;
      }

      .cls-2 {
        fill: #5a5a5a;
      }

      .cls-3 {
        fill: #8f8f8f;
      }

      .cls-4 {
        fill: #2c2c2c;
      }
    </style>
  </defs>
  <path id="Outer_Ring" class="cls-4" d="M.04,202.46c.62-32.05,3.18-63.91,11.15-95.07,5.46-21.37,15.6-40.25,32.17-55.25,17.06-15.44,37.07-25.81,58.55-33.42C130.1,8.72,159.25,3.21,189.08,1.07c49.07-3.52,97.1,1.4,143.69,17.6,21.52,7.48,41.5,17.95,58.58,33.36,16.6,14.98,26.56,33.89,32.29,55.19,5.51,20.47,7.79,41.48,9.72,62.52,.74,8.08,1.29,16.19,1.47,24.3,.88,39.3-4.94,77.75-15.67,115.46-4.89,17.18-10.49,34.15-16.1,51.11-4.1,12.4-4.79,25.18-5.77,38.03-1.18,15.42-2.01,31-4.94,46.13-6.88,35.5-27.76,61.76-57.53,81.2-28.09,18.35-59.69,26.27-92.66,29.6-37.13,3.76-73.37-.45-108.51-12.97-33.62-11.99-60.6-32.51-78.75-63.69-8.95-15.38-13.36-32.3-15.14-49.86-1.23-12.17-2.13-24.4-2.5-36.62-.52-17.3-5.86-33.36-11.38-49.46C13.06,305.61,3.98,267.41,.82,227.92c-.34-4.23-.63-8.47-.75-12.72-.13-4.24-.03-8.5-.03-12.74Zm219.24,336.53c14.31,.67,30.46-.99,46.37-4.54,33.37-7.44,63.64-20.72,86.53-47.37,10.62-12.37,18.95-26.05,23.65-41.77,5.86-19.62,5.89-39.94,7.44-60.1,.68-8.8,1.64-17.73,3.94-26.21,4.42-16.26,10.35-32.11,14.82-48.36,10.87-39.46,17.61-79.45,15.02-120.68-1.33-21.13-3.63-42.07-7.93-62.77-2.52-12.13-5.95-24.04-11.86-35.04-11.7-21.75-29.83-36.55-51.52-47.5-36.24-18.28-75.19-25.12-115.22-26.8-26.54-1.12-52.95,.92-79.07,6.01-28.86,5.62-56.28,15.06-80.71,31.77-18.9,12.92-33.01,29.92-39.55,52.14-3.76,12.78-6.71,25.89-8.89,39.04-5.11,30.8-6.83,61.83-3.41,92.96,4.18,38.08,13.75,74.89,26.21,111.05,2.79,8.08,4.75,16.62,5.72,25.11,1.62,14.13,1.89,28.4,3.16,42.57,3.98,44.47,26.99,76.68,65.39,97.88,30.29,16.72,63.36,23.29,99.91,22.61Z"/>
  <path id="Inner_FIll" class="cls-1" d="M219.28,538.99c-36.55,.68-69.62-5.89-99.91-22.61-38.4-21.2-61.41-53.41-65.39-97.88-1.27-14.17-1.54-28.45-3.16-42.57-.97-8.49-2.94-17.03-5.72-25.11-12.46-36.16-22.03-72.98-26.21-111.05-3.42-31.13-1.7-62.16,3.41-92.96,2.18-13.15,5.13-26.26,8.89-39.04,6.54-22.22,20.65-39.22,39.55-52.14,24.43-16.71,51.85-26.15,80.71-31.77,26.12-5.09,52.53-7.13,79.07-6.01,40.04,1.69,78.98,8.52,115.22,26.8,21.69,10.94,39.83,25.75,51.52,47.5,5.91,11,9.34,22.91,11.86,35.04,4.31,20.7,6.61,41.65,7.93,62.77,2.59,41.23-4.15,81.22-15.02,120.68-4.48,16.25-10.4,32.1-14.82,48.36-2.3,8.47-3.27,17.41-3.94,26.21-1.55,20.16-1.58,40.49-7.44,60.1-4.69,15.72-13.02,29.4-23.65,41.77-22.89,26.65-53.16,39.93-86.53,47.37-15.91,3.54-32.06,5.21-46.37,4.54Zm113.64-331.5c7.02-2.55,9.3-7.71,9.23-14.94-.23-24.24-.08-48.48-.09-72.73,0-10.65-3.84-14.52-14.42-14.52-73.48-.01-146.95-.01-220.43,0-10.58,0-14.42,3.87-14.42,14.52-.02,24.24,.14,48.49-.09,72.73-.07,7.24,2.22,12.39,9.23,14.94,2.09,.25,4.19,.71,6.28,.71,72.81,.04,145.62,.04,218.43,0,2.09,0,4.19-.47,6.28-.71Zm-115.52,112.95c-47.96,.01-87.23,38.93-86.9,86.84,.34,49.79,37.45,84.62,85.99,88.09,53.07-2.82,87.58-41.14,87.88-87.76,.3-48.18-38.85-87.18-86.96-87.17Zm144.92-34.7c0-19.46-15.26-34.76-34.68-34.76-19.25,0-34.87,15.5-34.98,34.71-.1,18.81,15.98,34.9,34.92,34.93,19.03,.03,34.74-15.73,34.74-34.88Zm-289.81-.17c-.05,19.18,15.54,34.99,34.57,35.04,18.95,.05,35.05-15.9,35.09-34.76,.04-19.14-15.6-34.82-34.81-34.88-19.44-.06-34.8,15.18-34.85,34.59Z"/>
  <path id="Forward_Button" class="cls-3" d="M217.39,320.44c48.11-.01,87.26,38.97,86.96,87.11-.29,46.59-34.81,84.89-87.88,87.7-48.54-3.47-85.65-38.28-85.99-88.03-.33-47.87,38.94-86.77,86.9-86.78Z"/>
  <rect id="Display" class="cls-2" x="92.81" y="105.28" width="249.34" height="102.94" rx="11.27" ry="11.27"/>
  <circle id="Reset_Button" class="cls-2" cx="327.49" cy="285.7" r="34.83"/>
  <circle id="Back_Button" class="cls-2" cx="107.35" cy="285.79" r="34.83"/>
</svg>