<?xml version="1.0" encoding="UTF-8"?>
<svg id="Layer_1" data-name="Layer 1" xmlns="http://www.w3.org/2000/svg" viewBox="0 0 434.94 556.91">
  <defs>
    <style>
      .cls-1 {
        fill: #2c2c2c;
      }
    </style>
  </defs>
  <path id="Outer_Ring" class="cls-1" d="M.04,202.46c.62-32.05,3.18-63.91,11.15-95.07,5.46-21.37,15.6-40.25,32.17-55.25,17.06-15.44,37.07-25.81,58.55-33.42C130.1,8.72,159.25,3.21,189.08,1.07c49.07-3.52,97.1,1.4,143.69,17.6,21.52,7.48,41.5,17.95,58.58,33.36,16.6,14.98,26.56,33.89,32.29,55.19,5.51,20.47,7.79,41.48,9.72,62.52,.74,8.08,1.29,16.19,1.47,24.3,.88,39.3-4.94,77.75-15.67,115.46-4.89,17.18-10.49,34.15-16.1,51.11-4.1,12.4-4.79,25.18-5.77,38.03-1.18,15.42-2.01,31-4.94,46.13-6.88,35.5-27.76,61.76-57.53,81.2-28.09,18.35-59.69,26.27-92.66,29.6-37.13,3.76-73.37-.45-108.51-12.97-33.62-11.99-60.6-32.51-78.75-63.69-8.95-15.38-13.36-32.3-15.14-49.86-1.23-12.17-2.13-24.4-2.5-36.62-.52-17.3-5.86-33.36-11.38-49.46C13.06,305.61,3.98,267.41,.82,227.92c-.34-4.23-.63-8.47-.75-12.72-.13-4.24-.03-8.5-.03-12.74Zm219.24,336.53c14.31,.67,30.46-.99,46.37-4.54,33.37-7.44,63.64-20.72,86.53-47.37,10.62-12.37,18.95-26.05,23.65-41.77,5.86-19.62,5.89-39.94,7.44-60.1,.68-8.8,1.64-17.73,3.94-26.21,4.42-16.26,10.35-32.11,14.82-48.36,10.87-39.46,17.61-79.45,15.02-120.68-1.33-21.13-3.63-42.07-7.93-62.77-2.52-12.13-5.95-24.04-11.86-35.04-11.7-21.75-29.83-36.55-51.52-47.5-36.24-18.28-75.19-25.12-115.22-26.8-26.54-1.12-52.95,.92-79.07,6.01-28.86,5.62-56.28,15.06-80.71,31.77-18.9,12.92-33.01,29.92-39.55,52.14-3.76,12.78-6.71,25.89-8.89,39.04-5.11,30.8-6.83,61.83-3.41,92.96,4.18,38.08,13.75,74.89,26.21,111.05,2.79,8.08,4.75,16.62,5.72,25.11,1.62,14.13,1.89,28.4,3.16,42.57,3.98,44.47,26.99,76.68,65.39,97.88,30.29,16.72,63.36,23.29,99.91,22.61Z"/>
</svg>