<?xml version="1.0" encoding="UTF-8"?><svg id="a" xmlns="http://www.w3.org/2000/svg" width="400.5" height="521.6" viewBox="0 0 400.5 521.6"><path d="M384.9,293.1c-4.5,16.2-10.4,32.1-14.8,48.4-2.3,8.5-3.3,17.4-4,26.2-1.5,20.2-1.6,40.5-7.4,60.1-4.7,15.7-13,29.4-23.6,41.8-22.9,26.6-53.2,39.9-86.5,47.4-15.9,3.5-32.1,5.2-46.4,4.5-36.6,.7-69.6-5.9-99.9-22.6-38.4-21.2-61.4-53.4-65.4-97.9-1.3-14.2-1.5-28.4-3.2-42.6-1-8.5-2.9-17-5.7-25.1C15.5,297.1,6,260.3,1.8,222.2c-3.4-31.1-1.7-62.2,3.4-93,2.2-13.2,5.1-26.2,8.9-39,6.5-22.2,20.6-39.2,39.5-52.1,24.4-16.7,51.8-26.1,80.7-31.8C160.5,1.2,186.9-.8,213.4,.3c40,1.7,79,8.5,115.2,26.8,21.7,10.9,39.8,25.7,51.5,47.5,5.9,11,9.3,22.9,11.9,35,4.3,20.7,6.6,41.7,7.9,62.8,2.6,41.2-4.1,81.2-15,120.7Z" fill="#1c1c1c"/></svg>