<?xml version="1.0" encoding="UTF-8"?>
<svg id="Layer_1" data-name="Layer 1" xmlns="http://www.w3.org/2000/svg" viewBox="0 0 400.5 521.59">
  <defs>
    <style>
      .cls-1 {
        fill: #1c1c1c;
      }
    </style>
  </defs>
  <path class="cls-1" d="M384.93,293.09c-4.48,16.25-10.4,32.1-14.82,48.37-2.3,8.47-3.27,17.41-3.95,26.21-1.55,20.16-1.58,40.48-7.44,60.1-4.69,15.72-13.02,29.4-23.64,41.77-22.9,26.65-53.16,39.93-86.53,47.37-15.91,3.54-32.06,5.21-46.37,4.53-36.56,.68-69.62-5.88-99.92-22.6-38.4-21.2-61.4-53.41-65.39-97.89-1.27-14.17-1.54-28.44-3.16-42.57-.97-8.49-2.93-17.03-5.72-25.11C15.53,297.11,5.96,260.29,1.78,222.21c-3.42-31.13-1.7-62.16,3.41-92.96,2.18-13.15,5.13-26.25,8.9-39.04,6.54-22.22,20.64-39.22,39.54-52.14,24.44-16.71,51.85-26.15,80.71-31.77C160.46,1.22,186.87-.82,213.41,.3c40.04,1.68,78.99,8.52,115.22,26.8,21.7,10.94,39.83,25.74,51.53,47.5,5.91,11,9.33,22.91,11.86,35.04,4.3,20.7,6.6,41.65,7.93,62.78,2.59,41.22-4.15,81.21-15.02,120.67Z"/>
</svg>