<?xml version="1.0" encoding="UTF-8"?>
<svg id="Layer_1" data-name="Layer 1" xmlns="http://www.w3.org/2000/svg" viewBox="0 0 33.55 28.77">
  <defs>
    <style>
      .cls-1 {
        fill: #272628;
      }
    </style>
  </defs>
  <path class="cls-1" d="M0,14.7l4.67,6.32,5.58-6.55-3.93,.06s-.46-11.05,10.03-11.05c4.5,0,5.47,.4,5.47-1.37,0-1.42-2.34-2.11-5.53-2.11C9.11,0,3.36,6.72,3.36,14.7H0Z"/>
  <path class="cls-1" d="M33.55,14.07l-4.67-6.32-5.58,6.55,3.93-.06s.46,11.05-10.03,11.05c-4.5,0-5.47-.4-5.47,1.37,0,1.42,2.34,2.11,5.53,2.11,7.18,0,12.93-6.72,12.93-14.7h3.36Z"/>
</svg>